<svg xmlns="http://www.w3.org/2000/svg" version="1.1" xmlns:xlink="http://www.w3.org/1999/xlink" width="512" height="512" x="0" y="0" viewBox="0 0 462 462.824" style="enable-background:new 0 0 512 512" xml:space="preserve" class=""><g transform="matrix(1,0,0,1,95,0)"><path d="M264.41 278.824h-24v-16h-208v16h-32v16h40v168h16v-27.93l80-58.175 80 58.176v27.93h16v-168h32zm-208 136.29v-96.579l66.402 48.29zm93.602-48.29 66.398-48.289v96.578zm66.398-68.07-80 58.176-80-58.176v-3.93h160zM104.41 182.824c0 17.672 14.328 32 32 32 17.676 0 32-14.328 32-32 0-12.047-17.765-36.097-32-52.168-14.222 16.086-32 40.168-32 52.168zm40 16c0 4.418-3.578 8-8 8-13.254 0-24-10.746-24-24a8 8 0 0 1 16 0 8 8 0 0 0 8 8c4.422 0 8 3.582 8 8zm0 0" fill="#000000" opacity="1" data-original="#000000" class=""></path><path d="M240.41 102.824h-208v144h208zm-104 128c-26.496-.027-47.972-21.5-48-48 0-24.586 37.89-65 42.211-69.52a8.245 8.245 0 0 1 11.582 0c4.32 4.52 42.207 44.934 42.207 69.52-.023 26.5-21.5 47.973-48 48zM32.41 70.824h208v16h-208zM136.41 0 38.95 54.824h194.925zm0 0" fill="#000000" opacity="1" data-original="#000000" class=""></path></g></svg>