<svg xmlns="http://www.w3.org/2000/svg" version="1.1" xmlns:xlink="http://www.w3.org/1999/xlink" width="512" height="512" x="0" y="0" viewBox="0 0 64 64" style="enable-background:new 0 0 512 512" xml:space="preserve" class=""><g><path fill="#4bb9ea" d="M37.03 16.32 32 9l-5.03 7.32c-.63.92-.97 2-.97 3.1 0 1.54.7 2.94 1.81 3.94C28.91 24.38 30.41 25 32 25c3.18 0 6-2.5 6-5.58 0-1.1-.34-2.18-.97-3.1zM32 22a1 1 0 0 1 0-2c.552 0 1-.449 1-1s.448-1 1-1 1 .448 1 1c0 1.654-1.346 3-3 3z" opacity="1" data-original="#4bb9ea" class=""></path><path d="M47 31a1 1 0 0 0 .99-.858l3-21a.994.994 0 0 0-.142-.671C50.632 8.125 45.4.001 32 .001S13.368 8.124 13.152 8.47c-.125.2-.175.438-.142.671l3 21c.07.493.492.858.99.858h2.837l-4.826 31.85a1 1 0 0 0 .988 1.15h6c.326 0 .573-.172.663-.252l8.335-7.409V63a1 1 0 0 0 2 0v-6.662l8.335 7.409c.09.08.356.252.663.252h6a.998.998 0 0 0 .988-1.15l-4.826-31.85h2.837zM15.153 10H26a1 1 0 0 0 0-2h-9.898C18.212 5.794 23.128 2 32 2s13.789 3.795 15.898 6H38a1 1 0 0 0 0 2h10.847l-2.714 19H17.867zm20.728 21L33 34.499V31zM31 34.499 28.119 31H31zm-.295 2.787-5.371 6.522 1.378-11.37 3.993 4.849zM31 40.073v11.811l-5.616-4.992zm-6.292 8.894 5.786 5.144-7.184 6.386 1.398-11.529zM33 40.073l5.616 6.819L33 51.884zm6.292 8.894 1.398 11.529-7.184-6.386 5.786-5.144zm-5.996-11.682 3.993-4.849 1.378 11.37-5.371-6.522zm-11.435-6.286h3.011l-3.758 31h-3.951l4.697-31zm24.977 31h-3.951l-3.758-31h3.011l4.697 31z" fill="#000000" opacity="1" data-original="#000000" class=""></path></g></svg>