<svg xmlns="http://www.w3.org/2000/svg" version="1.1" xmlns:xlink="http://www.w3.org/1999/xlink" width="512" height="512" x="0" y="0" viewBox="0 0 492 492" style="enable-background:new 0 0 512 512" xml:space="preserve" class=""><g><g fill-rule="evenodd" clip-rule="evenodd"><path d="M329.52 152.974a10.28 10.28 0 0 0 7.313-3.028 10.282 10.282 0 0 0 3.025-7.31c0-5.7-4.638-10.337-10.338-10.337H162.999c-5.7 0-10.337 4.637-10.337 10.337s4.637 10.337 10.337 10.337zM238.249 161.076h16.022v26.417h-16.022zM295.875 208.544a7.525 7.525 0 0 0 2.223-5.363c0-4.183-3.402-7.585-7.583-7.585h-88.509c-4.181 0-7.583 3.403-7.583 7.585 0 4.181 3.402 7.583 7.583 7.583h88.509a7.526 7.526 0 0 0 5.36-2.22zM402.391 261.791h28.19v80.514h-28.19zM61.94 261.791h28.19v80.514H61.94zM126.665 257.13c0-3.796-1.479-7.367-4.164-10.055a14.131 14.131 0 0 0-10.052-4.162c-7.839 0-14.217 6.378-14.217 14.217v89.833c0 7.839 6.377 14.217 14.217 14.217s14.216-6.377 14.216-14.217zM332.625 261.792c-19.265 0-37.876-3.604-55.314-10.713a4.05 4.05 0 0 1-2.522-3.751v-28.461h-57.058v28.461a4.05 4.05 0 0 1-2.522 3.751c-17.438 7.109-36.048 10.713-55.314 10.713h-25.128v80.514h25.129c21.349 0 42.611 4.635 61.487 13.404 7.817 3.631 16.188 5.472 24.878 5.472s17.06-1.841 24.878-5.472c18.876-8.769 40.138-13.403 61.486-13.403h25.129v-80.514zM365.856 346.964c0 7.839 6.377 14.217 14.216 14.217s14.217-6.377 14.217-14.217v-89.833c0-3.796-1.479-7.367-4.164-10.055a14.131 14.131 0 0 0-10.052-4.162c-7.839 0-14.216 6.378-14.216 14.217v89.833z" fill="#000000" opacity="1" data-original="#000000" class=""></path></g></g></svg>