<svg xmlns="http://www.w3.org/2000/svg" version="1.1" xmlns:xlink="http://www.w3.org/1999/xlink" width="512" height="512" x="0" y="0" viewBox="0 0 32 32" style="enable-background:new 0 0 512 512" xml:space="preserve" class=""><g><path d="M29 28H3a1 1 0 0 1-1-1v-1a1 1 0 0 1 1-1h26a1 1 0 0 1 1 1v1a1 1 0 0 1-1 1z" fill="#000000" opacity="1" data-original="#000000" class=""></path><path d="M22 26a1 1 0 0 1-1-1v-2a1 1 0 1 1 2 0v2a1 1 0 0 1-1 1zM9 26a1 1 0 0 1-1-1v-2a1 1 0 1 1 2 0v2a1 1 0 0 1-1 1zM5.897 9h6.206a8.522 8.522 0 0 1 .791-2.553A.998.998 0 0 0 13 6V5a1 1 0 0 0-1-1H6a1 1 0 0 0-1 1v1c0 .155.036.308.105.447.4.8.66 1.668.792 2.553zM5 13H4v-1a1 1 0 1 0-2 0v10a1 1 0 1 0 2 0v-1h1zM19 13h6v2h-6zM19 16h6v2h-6zM19 11h6v1h-6zM26.031 11H26v12h.031A3.973 3.973 0 0 0 30 19.031V14.97A3.973 3.973 0 0 0 26.031 11zM19 19h6v2h-6z" fill="#000000" opacity="1" data-original="#000000" class=""></path><path d="M19 22h6v1h-6zM6 10h6v14H6zM16 10l2 1v12l-2 1zM15 10l-2 1v12l2 1z" fill="#000000" opacity="1" data-original="#000000" class=""></path></g></svg>