<svg xmlns="http://www.w3.org/2000/svg" version="1.1" xmlns:xlink="http://www.w3.org/1999/xlink" width="512" height="512" x="0" y="0" viewBox="0 0 512 512" style="enable-background:new 0 0 512 512" xml:space="preserve" class=""><g><path fill-rule="evenodd" d="M52.721 231.589h406.557c20.197 0 36.721 16.525 36.721 36.721v92.809H16V268.31c0-20.197 16.524-36.721 36.721-36.721zM496 375.119v6.684c0 20.196-16.525 36.721-36.721 36.721H52.721C32.524 418.523 16 401.999 16 381.802v-6.684h480zm-381.64 57.404v15.508c0 7.223-5.892 13.114-13.115 13.114H80.262c-7.223 0-13.115-5.891-13.115-13.114v-15.508zm330.492 0v15.508c0 7.223-5.892 13.114-13.115 13.114h-20.984c-7.223 0-13.115-5.891-13.115-13.114v-15.508zM256 166.87c6.075 0 11 4.925 11 11s-4.925 11-11 11-11-4.925-11-11 4.925-11 11-11zm37.028-26.027a7 7 0 0 1-9.899 9.899c-3.566-3.567-7.784-6.423-12.433-8.348-4.493-1.861-9.456-2.889-14.697-2.889s-10.204 1.028-14.697 2.889c-4.648 1.925-8.866 4.781-12.433 8.348a7 7 0 0 1-9.899-9.899 52.486 52.486 0 0 1 17.027-11.356 52.163 52.163 0 0 1 20.001-3.983A52.15 52.15 0 0 1 276 129.487a52.448 52.448 0 0 1 17.028 11.356zm-94.098-20.042a7 7 0 0 1-9.899-9.899 94.874 94.874 0 0 1 30.774-20.551c11.184-4.632 23.41-7.189 36.194-7.189s25.01 2.557 36.194 7.189a94.883 94.883 0 0 1 30.775 20.551 7 7 0 0 1-9.899 9.899c-7.471-7.471-16.351-13.472-26.181-17.544-9.481-3.927-19.913-6.095-30.889-6.095-10.977 0-21.408 2.167-30.889 6.095-9.829 4.072-18.709 10.073-26.18 17.544zm118.824 171.553c-6.075 0-11 4.925-11 11s4.925 11 11 11 11-4.925 11-11c.001-6.075-4.925-11-11-11zm56.375 0c-6.075 0-11 4.925-11 11s4.925 11 11 11 11-4.925 11-11-4.925-11-11-11zm56.375-.001c-6.075 0-11 4.925-11 11s4.925 11 11 11 11-4.925 11-11-4.925-11-11-11zM406.375 50.854c9.075 0 16.5 7.425 16.5 16.5v150.235h-33V67.354c0-9.075 7.425-16.5 16.5-16.5zm-300.75 0c9.075 0 16.5 7.425 16.5 16.5v150.235h-33V67.354c0-9.075 7.424-16.5 16.5-16.5zm-9.296 230.233c-12.298 0-22.267 9.969-22.267 22.267s9.969 22.267 22.267 22.267 22.267-9.969 22.267-22.267-9.969-22.267-22.267-22.267z" clip-rule="evenodd" fill="#000000" opacity="1" data-original="#000000" class=""></path></g></svg>